<svg width="206" height="206" viewBox="0 0 206 206" fill="none" xmlns="http://www.w3.org/2000/svg">
<g clip-path="url(#clip0_34_54)">
<path fill-rule="evenodd" clip-rule="evenodd" d="M39.8027 175.02C40.1711 177.454 41.3078 179.725 43.07 181.487C45.2457 183.663 48.1966 184.885 51.2736 184.885H155.066C158.143 184.885 161.095 183.663 163.27 181.487C165.032 179.725 166.169 177.454 166.537 175.02H178.664C185.072 175.02 190.266 169.826 190.266 163.418C190.266 157.01 185.072 151.816 178.664 151.816H27.676C21.2686 151.816 16.0743 157.01 16.0743 163.418C16.0743 169.826 21.2686 175.02 27.676 175.02H39.8027Z" fill="#EAECF0"/>
<path fill-rule="evenodd" clip-rule="evenodd" d="M167.431 60.0721L66.8483 54.6019C66.8483 54.6019 59.0477 113.769 54.9989 144.48C54.3856 149.131 55.7402 153.827 58.736 157.437C61.732 161.047 66.0979 163.245 70.7824 163.499L151.71 167.901C156.394 168.155 160.973 166.444 164.343 163.181C167.713 159.917 169.569 155.395 169.463 150.705C168.769 119.736 167.431 60.0721 167.431 60.0721Z" fill="#667085"/>
<path fill-rule="evenodd" clip-rule="evenodd" d="M144.628 167.411C148.223 167.606 151.738 166.275 154.325 163.738C156.913 161.201 158.339 157.687 158.261 154.043C157.64 125.082 156.49 71.5808 156.49 71.5808C156.487 71.4643 156.439 71.3538 156.356 71.2737L143.704 59.1424C143.531 58.9768 143.258 58.9845 143.094 59.1595C142.93 59.3345 142.938 59.611 143.11 59.7766L155.631 71.7829C155.705 75.2055 156.798 126.085 157.399 154.063C157.472 157.464 156.141 160.743 153.726 163.111C151.311 165.479 148.032 166.722 144.676 166.539C144.439 166.526 144.235 166.711 144.222 166.952C144.209 167.192 144.391 167.398 144.628 167.411Z" fill="#344054"/>
<path fill-rule="evenodd" clip-rule="evenodd" d="M156.175 71.3424L166.85 60.7138C167.013 60.5507 167.021 60.2799 166.866 60.1092C166.711 59.9388 166.451 59.9327 166.288 60.0958L155.612 70.7243C155.449 70.8874 155.441 71.1583 155.597 71.3288C155.753 71.4994 156.012 71.5055 156.175 71.3424Z" fill="#344054"/>
<path fill-rule="evenodd" clip-rule="evenodd" d="M142.964 58.7413L42.3805 53.271C42.3805 53.271 34.5799 112.438 30.5311 143.149C29.9178 147.8 31.2724 152.496 34.2682 156.107C37.2643 159.716 41.6302 161.914 46.3146 162.169L127.242 166.57C131.926 166.825 136.506 165.114 139.875 161.85C143.245 158.586 145.101 154.064 144.996 149.374C144.301 118.405 142.964 58.7413 142.964 58.7413Z" fill="#D0D5DD"/>
<path fill-rule="evenodd" clip-rule="evenodd" d="M63.634 54.4269C63.9326 56.181 64.042 57.9968 63.9412 59.8493C63.2145 73.212 51.825 83.485 38.4797 82.8592L42.3806 53.271L63.634 54.4269Z" fill="#98A2B3"/>
<path fill-rule="evenodd" clip-rule="evenodd" d="M72.0816 148.48C72.1344 147.509 71.3902 146.679 70.4194 146.626C64.8726 146.324 47.7799 145.395 42.2331 145.093C41.2623 145.04 40.4324 145.785 40.3796 146.755C40.2944 148.322 40.1703 150.604 40.0851 152.171C40.0323 153.142 40.7765 153.972 41.7473 154.024C47.2941 154.326 64.3869 155.256 69.9337 155.557C70.9045 155.61 71.7343 154.866 71.7871 153.895C71.8723 152.328 71.9964 150.047 72.0816 148.48Z" fill="white"/>
<path d="M47.0727 148.358L45.194 150.8L46.9654 150.895L46.832 151.649L44.036 151.498L44.0743 150.786L45.9892 148.317L44.3915 148.232L44.431 147.496L47.1113 147.64L47.0727 148.358ZM48.8171 148.574C49.2879 148.599 49.6487 148.764 49.8994 149.067C50.1504 149.367 50.262 149.776 50.2342 150.293C50.2165 150.621 50.1393 150.905 50.0026 151.146C49.8699 151.382 49.686 151.562 49.4511 151.685C49.22 151.808 48.9501 151.861 48.6413 151.845C48.1744 151.819 47.8135 151.657 47.5587 151.357C47.3079 151.053 47.1965 150.643 47.2243 150.125C47.2419 149.797 47.317 149.515 47.4497 149.278C47.5865 149.038 47.7704 148.856 48.0015 148.733C48.2365 148.61 48.5083 148.557 48.8171 148.574ZM48.781 149.245C48.5958 149.235 48.4526 149.307 48.3514 149.46C48.2505 149.61 48.1913 149.848 48.1736 150.176C48.1556 150.512 48.1868 150.76 48.2673 150.919C48.3516 151.078 48.4883 151.163 48.6774 151.173C48.8627 151.183 49.0057 151.113 49.1067 150.964C49.2078 150.811 49.2672 150.57 49.2848 150.242C49.3028 149.906 49.2697 149.659 49.1854 149.499C49.1049 149.34 48.9701 149.255 48.781 149.245ZM52.1977 148.755C52.6685 148.781 53.0293 148.945 53.2801 149.249C53.531 149.549 53.6426 149.957 53.6148 150.475C53.5972 150.803 53.52 151.087 53.3832 151.327C53.2505 151.564 53.0667 151.744 52.8317 151.867C52.6006 151.99 52.3307 152.043 52.022 152.026C51.555 152.001 51.1941 151.839 50.9393 151.538C50.6886 151.235 50.5771 150.824 50.6049 150.307C50.6225 149.979 50.6977 149.697 50.8304 149.46C50.9671 149.22 51.1511 149.038 51.3822 148.915C51.6171 148.792 51.889 148.739 52.1977 148.755ZM52.1616 149.427C51.9764 149.417 51.8332 149.489 51.7321 149.642C51.6312 149.791 51.5719 150.03 51.5543 150.358C51.5362 150.694 51.5674 150.941 51.6479 151.1C51.7322 151.26 51.8689 151.345 52.058 151.355C52.2433 151.365 52.3864 151.295 52.4873 151.146C52.5884 150.992 52.6478 150.752 52.6654 150.424C52.6835 150.088 52.6503 149.84 52.566 149.681C52.4855 149.522 52.3507 149.437 52.1616 149.427ZM57.6392 149.048C57.8784 149.061 58.067 149.154 58.2047 149.328C58.3426 149.498 58.4038 149.728 58.3883 150.017L58.2676 152.263L57.3529 152.214L57.4652 150.124C57.48 149.85 57.4024 149.709 57.2326 149.699C57.1361 149.694 57.0495 149.723 56.9726 149.784C56.8958 149.846 56.819 149.942 56.7422 150.074L56.6293 152.175L55.7147 152.126L55.827 150.036C55.8417 149.762 55.7622 149.62 55.5886 149.611C55.4959 149.606 55.4092 149.636 55.3282 149.702C55.2514 149.763 55.1747 149.858 55.0982 149.985L54.9853 152.087L54.0706 152.038L54.2358 148.964L55.0289 149.006L55.0788 149.375C55.2028 149.227 55.3403 149.118 55.4911 149.049C55.6419 148.979 55.8099 148.95 55.9951 148.96C56.1649 148.969 56.3093 149.019 56.4282 149.111C56.551 149.202 56.6392 149.327 56.6926 149.485C56.825 149.325 56.9666 149.211 57.1174 149.142C57.2723 149.069 57.4462 149.037 57.6392 149.048ZM62.5066 149.309C62.7459 149.322 62.9344 149.416 63.0721 149.589C63.21 149.759 63.2712 149.989 63.2557 150.279L63.135 152.525L62.2204 152.475L62.3326 150.386C62.3474 150.112 62.2698 149.97 62.1 149.961C62.0035 149.956 61.9169 149.984 61.84 150.046C61.7632 150.107 61.6864 150.204 61.6097 150.335L61.4967 152.437L60.5821 152.387L60.6944 150.298C60.7091 150.024 60.6296 149.882 60.456 149.873C60.3634 149.868 60.2766 149.898 60.1957 149.963C60.1188 150.025 60.0421 150.119 59.9656 150.247L59.8527 152.348L58.9381 152.299L59.1032 149.225L59.8963 149.268L59.9462 149.636C60.0702 149.488 60.2077 149.379 60.3585 149.31C60.5093 149.241 60.6773 149.211 60.8625 149.221C61.0324 149.23 61.1767 149.28 61.2957 149.372C61.4185 149.464 61.5066 149.589 61.56 149.746C61.6924 149.587 61.834 149.473 61.9848 149.403C62.1397 149.33 62.3136 149.299 62.5066 149.309ZM66.5774 151.107C66.5705 151.235 66.5588 151.344 66.5423 151.436L64.6377 151.334C64.6547 151.594 64.7183 151.779 64.8285 151.89C64.9386 152 65.096 152.061 65.3005 152.072C65.424 152.079 65.5448 152.064 65.6629 152.028C65.7811 151.988 65.9103 151.925 66.0504 151.839L66.3993 152.369C66.025 152.635 65.6179 152.757 65.1779 152.733C64.6801 152.706 64.3059 152.539 64.0554 152.232C63.8049 151.924 63.6929 151.523 63.7194 151.029C63.7362 150.717 63.8072 150.44 63.9324 150.199C64.0578 149.954 64.2324 149.766 64.4562 149.635C64.6802 149.5 64.9427 149.44 65.2437 149.456C65.6875 149.48 66.0274 149.638 66.2633 149.929C66.4992 150.221 66.6039 150.613 66.5774 151.107ZM65.6941 150.799C65.7117 150.327 65.5584 150.083 65.2342 150.066C65.076 150.057 64.9494 150.108 64.8544 150.219C64.7632 150.331 64.7009 150.519 64.6673 150.784L65.6919 150.839L65.6941 150.799ZM68.8479 149.662C68.9559 149.668 69.0575 149.687 69.1525 149.719L68.9602 150.597C68.8459 150.563 68.754 150.545 68.6845 150.541C68.507 150.532 68.3668 150.584 68.2639 150.699C68.1648 150.813 68.0797 150.993 68.0085 151.236L67.9255 152.782L67.0108 152.733L67.176 149.659L67.9691 149.702L68.0181 150.302C68.099 150.094 68.2121 149.933 68.3574 149.821C68.5069 149.705 68.6704 149.652 68.8479 149.662Z" fill="#FC743E"/>
<path d="M70.6723 71.6236C73.0746 71.7542 75.128 69.9127 75.2586 67.5104C75.3893 65.1081 73.5477 63.0547 71.1454 62.9241C68.7431 62.7934 66.6897 64.635 66.5591 67.0373C66.4284 69.4396 68.27 71.4929 70.6723 71.6236Z" fill="#1D2939"/>
<path d="M112.567 73.9019C114.969 74.0326 117.022 72.191 117.153 69.7887C117.284 67.3864 115.442 65.333 113.04 65.2024C110.638 65.0717 108.584 66.9133 108.454 69.3156C108.323 71.7179 110.165 73.7713 112.567 73.9019Z" fill="#1D2939"/>
<path fill-rule="evenodd" clip-rule="evenodd" d="M67.9752 67.0365C67.9752 67.0365 66.696 82.8478 65.5079 97.5336C64.9204 104.795 67.2918 111.986 72.0838 117.473C76.8758 122.96 83.6816 126.278 90.956 126.674L90.9563 126.674C102.137 127.282 111.767 118.872 112.67 107.711C113.978 91.5371 115.738 69.7897 115.738 69.7897C115.869 68.1704 114.661 66.7494 113.041 66.6183C111.422 66.4873 110.001 67.6956 109.87 69.315C109.87 69.315 108.11 91.0623 106.802 107.237C106.156 115.217 99.2705 121.23 91.2759 120.795L91.2757 120.795C85.5874 120.486 80.2654 117.891 76.5182 113.6C72.771 109.309 70.9166 103.687 71.3759 98.0083C72.5641 83.3225 73.8433 67.5113 73.8433 67.5113C73.9743 65.8919 72.766 64.4709 71.1466 64.3398C69.5273 64.2088 68.1062 65.4172 67.9752 67.0365Z" fill="#98A2B3"/>
<path fill-rule="evenodd" clip-rule="evenodd" d="M68.0042 66.7983L63.4985 94.307C62.4993 100.407 64.1409 106.644 68.0135 111.462C71.8861 116.28 77.6245 119.224 83.7967 119.56L83.7968 119.56C97.2169 120.29 109.032 110.793 111.204 97.5296L115.709 70.0284C115.971 68.4251 114.883 66.9103 113.28 66.6477C111.676 66.3851 110.161 67.4735 109.899 69.0768L105.394 96.578C103.708 106.875 94.5351 114.248 84.1165 113.681L84.1164 113.681C79.6136 113.436 75.4273 111.289 72.6021 107.774C69.777 104.259 68.5795 99.7088 69.3084 95.2587L73.8142 67.7499C74.0768 66.1466 72.9883 64.6318 71.385 64.3692C69.7817 64.1066 68.2669 65.195 68.0042 66.7983Z" fill="white"/>
<path fill-rule="evenodd" clip-rule="evenodd" d="M108.341 47.7046L110.126 14.8897C110.214 13.2675 108.969 11.8788 107.347 11.7906C105.724 11.7024 104.336 12.9478 104.248 14.57L102.463 47.3849C102.375 49.0071 103.62 50.3957 105.242 50.484C106.864 50.5722 108.253 49.3268 108.341 47.7046Z" fill="#D0D5DD"/>
<path fill-rule="evenodd" clip-rule="evenodd" d="M85.626 45.4714L80.6163 28.743C80.1502 27.1867 78.5082 26.3015 76.9519 26.7677C75.3956 27.2337 74.5104 28.8756 74.9766 30.432L79.9864 47.1604C80.4524 48.7167 82.0943 49.6019 83.6507 49.1358C85.207 48.6697 86.0922 47.0277 85.626 45.4714Z" fill="#D0D5DD"/>
<path fill-rule="evenodd" clip-rule="evenodd" d="M130.708 49.919L137.503 33.8325C138.135 32.3358 137.433 30.6076 135.937 29.9755C134.44 29.3433 132.712 30.0452 132.08 31.5418L125.285 47.6282C124.653 49.1248 125.355 50.8532 126.851 51.4852C128.348 52.1174 130.076 51.4155 130.708 49.919Z" fill="#D0D5DD"/>
<path d="M38.0792 77.8381C50.5497 77.8381 60.6591 67.7287 60.6591 55.2581C60.6591 42.7876 50.5497 32.6782 38.0792 32.6782C25.6086 32.6782 15.4993 42.7876 15.4993 55.2581C15.4993 67.7287 25.6086 77.8381 38.0792 77.8381Z" fill="#EC5E2A"/>
<path d="M41.5227 48.0844C40.7718 46.7593 39.6234 46.0968 38.0775 46.0968C36.5315 46.0968 35.3831 46.7593 34.6323 48.0844C33.8814 49.4095 33.5059 51.6842 33.5059 54.9086C33.5059 58.133 33.8814 60.4077 34.6323 61.7328C35.3831 63.0579 36.5315 63.7204 38.0775 63.7204C39.6234 63.7204 40.7718 63.0579 41.5227 61.7328C42.2736 60.4077 42.649 58.133 42.649 54.9086C42.649 51.6842 42.2736 49.4095 41.5227 48.0844ZM45.0342 64.383C43.5103 66.3485 41.1914 67.3313 38.0775 67.3313C34.9635 67.3313 32.6336 66.3485 31.0877 64.383C29.5638 62.4174 28.8019 59.2593 28.8019 54.9086C28.8019 50.5579 29.5638 47.3998 31.0877 45.4343C32.6336 43.4687 34.9635 42.4859 38.0775 42.4859C41.1914 42.4859 43.5103 43.4687 45.0342 45.4343C46.5801 47.3998 47.3531 50.5579 47.3531 54.9086C47.3531 59.2593 46.5801 62.4174 45.0342 64.383Z" fill="white"/>
<path d="M128.703 154.251C129.06 154.274 129.36 154.407 129.603 154.649L129.25 154.975C129.156 154.895 129.068 154.836 128.985 154.798C128.904 154.758 128.81 154.735 128.701 154.728C128.496 154.715 128.327 154.785 128.194 154.94C128.061 155.092 127.985 155.331 127.964 155.659C127.941 156.013 127.971 156.267 128.055 156.422C128.139 156.574 128.279 156.657 128.476 156.669C128.614 156.678 128.741 156.656 128.857 156.602L128.897 155.975L128.538 155.952L128.504 155.485L129.562 155.553L129.474 156.922C129.324 157.006 129.161 157.067 128.985 157.107C128.809 157.146 128.634 157.161 128.461 157.149C128.041 157.123 127.732 156.98 127.535 156.721C127.338 156.46 127.254 156.091 127.285 155.615C127.304 155.312 127.378 155.055 127.507 154.844C127.638 154.633 127.807 154.478 128.013 154.379C128.223 154.278 128.453 154.235 128.703 154.251ZM130.158 156.533C130.257 156.539 130.338 156.58 130.403 156.657C130.47 156.73 130.501 156.817 130.494 156.915C130.488 157.016 130.447 157.1 130.37 157.168C130.296 157.232 130.21 157.262 130.112 157.255C130.011 157.249 129.927 157.209 129.859 157.135C129.795 157.059 129.765 156.97 129.772 156.869C129.778 156.77 129.818 156.689 129.892 156.624C129.968 156.557 130.057 156.526 130.158 156.533ZM133.602 157.411L132.959 157.37L132.981 156.285C132.984 156.026 132.992 155.795 133.005 155.593C133.015 155.439 133.028 155.293 133.045 155.155L132.495 157.047L131.876 157.008L131.544 155.058C131.545 155.291 131.539 155.51 131.526 155.715C131.516 155.869 131.502 156.03 131.483 156.197L131.367 157.268L130.728 157.227L131.113 154.474L131.939 154.527L132.234 156.429L132.742 154.578L133.572 154.631L133.602 157.411Z" fill="#EAECF0"/>
</g>
<defs>
<clipPath id="clip0_34_54">
<rect width="206" height="206" fill="white"/>
</clipPath>
</defs>
</svg>
