<svg width="20" height="20" viewBox="0 0 20 20" fill="none" xmlns="http://www.w3.org/2000/svg">
<g opacity="0.8">
<path fill-rule="evenodd" clip-rule="evenodd" d="M0 3.125C0 1.39911 1.39911 0 3.125 0H16.875C18.6009 0 20 1.39911 20 3.125V16.875C20 18.6009 18.6009 20 16.875 20H3.125C1.39911 20 0 18.6009 0 16.875V3.125ZM10 5C12.75 5 15 7.25 15 10C15 12.5 13.1875 14.625 10.6875 15V11.4375H11.875L12.125 10H10.75V9.0625C10.75 8.6875 10.9375 8.3125 11.5625 8.3125H12.1875V7.0625C12.1875 7.0625 11.625 6.9375 11.0625 6.9375C9.9375 6.9375 9.1875 7.625 9.1875 8.875V10H7.9375V11.4375H9.1875V14.9375C6.8125 14.5625 5 12.5 5 10C5 7.25 7.25 5 10 5Z" fill="#EC5E2A"/>
</g>
</svg>
