<svg width="20" height="20" viewBox="0 0 20 20" fill="none" xmlns="http://www.w3.org/2000/svg">
<g opacity="0.8">
<rect width="20" height="20" rx="3" fill="#EC5E2A"/>
<path d="M14.5 6H5.5C5.10218 6 4.72064 6.14658 4.43934 6.4075C4.15803 6.66842 4 7.02231 4 7.3913V12.6087C4 12.9777 4.15803 13.3316 4.43934 13.5925C4.72064 13.8534 5.10218 14 5.5 14H14.5C14.8978 14 15.2794 13.8534 15.5607 13.5925C15.842 13.3316 16 12.9777 16 12.6087V7.3913C16 7.02231 15.842 6.66842 15.5607 6.4075C15.2794 6.14658 14.8978 6 14.5 6ZM14.3612 8.35478L10.2362 11.4852C10.1694 11.5355 10.086 11.5629 10 11.5629C9.91397 11.5629 9.83056 11.5355 9.76375 11.4852L5.63875 8.35478C5.59502 8.32794 5.55784 8.29289 5.52962 8.25189C5.5014 8.21089 5.48276 8.16487 5.47491 8.11677C5.46706 8.06868 5.47018 8.0196 5.48405 7.97269C5.49792 7.92578 5.52225 7.8821 5.55546 7.84445C5.58866 7.80681 5.63001 7.77604 5.67683 7.75414C5.72366 7.73224 5.77491 7.71969 5.82729 7.71731C5.87967 7.71492 5.932 7.72275 5.98091 7.74029C6.02982 7.75783 6.07422 7.78469 6.11125 7.81913L10 10.7687L13.8888 7.81913C13.9662 7.77158 14.06 7.7524 14.1518 7.7653C14.2437 7.77819 14.3271 7.82226 14.3859 7.88895C14.4447 7.95564 14.4748 8.0402 14.4702 8.12626C14.4657 8.21233 14.4268 8.29376 14.3612 8.35478Z" fill="white"/>
</g>
</svg>
