<svg width="20" height="20" viewBox="0 0 20 20" fill="none" xmlns="http://www.w3.org/2000/svg">
<g opacity="0.8">
<rect width="20" height="20" rx="3" fill="white"/>
<path d="M13.2681 11.3181C13.1967 11.2355 13.1083 11.1692 13.009 11.1238C12.9097 11.0784 12.8017 11.0549 12.6925 11.0549C12.5833 11.0549 12.4754 11.0784 12.3761 11.1238C12.2767 11.1692 12.1884 11.2355 12.1169 11.3181C11.848 11.5838 11.5791 11.8527 11.3134 12.1249C11.2884 12.1589 11.2513 12.1819 11.2098 12.1893C11.1683 12.1966 11.1255 12.1877 11.0904 12.1643C10.9166 12.0692 10.7296 11.9937 10.5624 11.8888C9.79483 11.3913 9.11448 10.7708 8.54867 10.0522C8.25325 9.7039 8.00917 9.31514 7.82386 8.89773C7.80371 8.86312 7.79692 8.82234 7.80478 8.78307C7.81263 8.74379 7.83459 8.70876 7.8665 8.68456C8.13543 8.42219 8.3978 8.15654 8.66345 7.88761C8.75015 7.81559 8.81992 7.72536 8.86781 7.62333C8.9157 7.5213 8.94052 7.40998 8.94052 7.29727C8.94052 7.18457 8.9157 7.07324 8.86781 6.97121C8.81992 6.86918 8.75015 6.77895 8.66345 6.70693L8.03048 6.07396C7.81402 5.8575 7.59757 5.63777 7.37455 5.41803C7.30253 5.33637 7.21396 5.27097 7.11473 5.22617C7.01549 5.18137 6.90785 5.1582 6.79897 5.1582C6.69009 5.1582 6.58245 5.18137 6.48322 5.22617C6.38398 5.27097 6.29541 5.33637 6.22339 5.41803C5.95118 5.68368 5.69209 5.95917 5.41332 6.22154C5.16789 6.45301 5.02107 6.77015 5.00336 7.10705C4.98 7.65957 5.07854 8.21047 5.29198 8.72064C5.70104 9.78119 6.29019 10.7631 7.03346 11.6231C8.01176 12.7979 9.22936 13.7505 10.605 14.4174C11.2163 14.7375 11.8853 14.9326 12.5728 14.9913C12.8031 15.0172 13.0363 14.9879 13.253 14.9058C13.4697 14.8236 13.6638 14.6911 13.8191 14.5191C14.0486 14.26 14.3077 14.0238 14.5537 13.7779C14.6388 13.7055 14.7071 13.6155 14.7539 13.5142C14.8008 13.4128 14.8251 13.3025 14.8251 13.1908C14.8251 13.0791 14.8008 12.9688 14.7539 12.8674C14.7071 12.7661 14.6388 12.6761 14.5537 12.6037C14.1295 12.1752 13.701 11.7467 13.2681 11.3181Z" fill="#EC5E2A"/>
<path d="M14.9698 9.44496C14.1158 7.45022 12.5217 5.86432 10.5226 5.02071C10.4421 4.99066 10.353 4.9934 10.2745 5.02836C10.1959 5.06332 10.1343 5.1277 10.1028 5.20765C10.0856 5.24765 10.0766 5.29068 10.0762 5.33422C10.0758 5.37775 10.0841 5.42093 10.1006 5.46123C10.1171 5.50152 10.1414 5.53813 10.1722 5.56892C10.203 5.59971 10.2396 5.62407 10.2799 5.64056C12.1227 6.4191 13.5921 7.88144 14.3794 9.72045C14.4146 9.79844 14.4789 9.85958 14.5586 9.89083C14.6382 9.92208 14.727 9.92096 14.8058 9.88771C14.8462 9.87004 14.8826 9.84442 14.9128 9.81237C14.9431 9.78032 14.9665 9.7425 14.9818 9.70117C14.9972 9.65985 15.004 9.61586 15.0019 9.57184C14.9998 9.52782 14.9889 9.48466 14.9698 9.44496Z" fill="#EC5E2A"/>
<path d="M10.1094 7.42145C11.2264 7.89194 12.1175 8.77716 12.5954 9.89103C12.6208 9.94597 12.6609 9.99283 12.7112 10.0264C12.7616 10.06 12.8202 10.079 12.8807 10.0813C12.925 10.0809 12.9687 10.0708 13.0086 10.0517C13.084 10.0148 13.1424 9.9503 13.1717 9.87159C13.201 9.79288 13.199 9.70592 13.1661 9.62866C12.6244 8.36404 11.6133 7.35884 10.3456 6.82456C10.2675 6.79685 10.1818 6.7997 10.1058 6.83256C10.0297 6.86541 9.96893 6.92582 9.93559 7.00165C9.90476 7.08053 9.90564 7.16828 9.93804 7.24653C9.97044 7.32477 10.0318 7.38746 10.1094 7.42145Z" fill="#EC5E2A"/>
</g>
</svg>
