<svg width="20" height="20" viewBox="0 0 20 20" fill="none" xmlns="http://www.w3.org/2000/svg">
<g opacity="0.8">
<path d="M10 11.75C9.0625 11.75 8.25 11 8.25 10C8.25 9.0625 9 8.25 10 8.25C10.9375 8.25 11.75 9 11.75 10C11.75 10.9375 10.9375 11.75 10 11.75Z" fill="#EC5E2A"/>
<path fill-rule="evenodd" clip-rule="evenodd" d="M12.125 5.75H7.875C7.375 5.8125 7.125 5.875 6.9375 5.9375C6.6875 6 6.5 6.125 6.3125 6.3125C6.16413 6.46087 6.09403 6.60923 6.0093 6.78856C5.98697 6.83583 5.96356 6.88537 5.9375 6.9375C5.92783 6.9665 5.91667 6.99701 5.9047 7.0297C5.83932 7.20833 5.75 7.45235 5.75 7.875V12.125C5.8125 12.625 5.875 12.875 5.9375 13.0625C6 13.3125 6.125 13.5 6.3125 13.6875C6.46087 13.8359 6.60923 13.906 6.78857 13.9907C6.83587 14.013 6.88532 14.0364 6.9375 14.0625C6.96651 14.0722 6.99701 14.0833 7.0297 14.0953C7.20833 14.1607 7.45235 14.25 7.875 14.25H12.125C12.625 14.1875 12.875 14.125 13.0625 14.0625C13.3125 14 13.5 13.875 13.6875 13.6875C13.8359 13.5391 13.906 13.3908 13.9907 13.2114C14.013 13.1641 14.0364 13.1147 14.0625 13.0625C14.0722 13.0335 14.0833 13.003 14.0953 12.9703C14.1607 12.7917 14.25 12.5476 14.25 12.125V7.875C14.1875 7.375 14.125 7.125 14.0625 6.9375C14 6.6875 13.875 6.5 13.6875 6.3125C13.5391 6.16413 13.3908 6.09403 13.2114 6.0093C13.1642 5.98699 13.1146 5.96354 13.0625 5.9375C13.0335 5.92783 13.003 5.91667 12.9703 5.9047C12.7917 5.83931 12.5477 5.75 12.125 5.75ZM10 7.3125C8.5 7.3125 7.3125 8.5 7.3125 10C7.3125 11.5 8.5 12.6875 10 12.6875C11.5 12.6875 12.6875 11.5 12.6875 10C12.6875 8.5 11.5 7.3125 10 7.3125ZM13.375 7.25C13.375 7.59518 13.0952 7.875 12.75 7.875C12.4048 7.875 12.125 7.59518 12.125 7.25C12.125 6.90482 12.4048 6.625 12.75 6.625C13.0952 6.625 13.375 6.90482 13.375 7.25Z" fill="#EC5E2A"/>
<path fill-rule="evenodd" clip-rule="evenodd" d="M0 3.125C0 1.39911 1.39911 0 3.125 0H16.875C18.6009 0 20 1.39911 20 3.125V16.875C20 18.6009 18.6009 20 16.875 20H3.125C1.39911 20 0 18.6009 0 16.875V3.125ZM7.875 4.8125H12.125C12.6875 4.875 13.0625 4.9375 13.375 5.0625C13.75 5.25 14 5.375 14.3125 5.6875C14.625 6 14.8125 6.3125 14.9375 6.625C15.0625 6.9375 15.1875 7.3125 15.1875 7.875V12.125C15.125 12.6875 15.0625 13.0625 14.9375 13.375C14.75 13.75 14.625 14 14.3125 14.3125C14 14.625 13.6875 14.8125 13.375 14.9375C13.0625 15.0625 12.6875 15.1875 12.125 15.1875H7.875C7.3125 15.125 6.9375 15.0625 6.625 14.9375C6.25 14.75 6 14.625 5.6875 14.3125C5.375 14 5.1875 13.6875 5.0625 13.375C4.9375 13.0625 4.8125 12.6875 4.8125 12.125V7.875C4.875 7.3125 4.9375 6.9375 5.0625 6.625C5.25 6.25 5.375 6 5.6875 5.6875C6 5.375 6.3125 5.1875 6.625 5.0625C6.9375 4.9375 7.3125 4.8125 7.875 4.8125Z" fill="#EC5E2A"/>
</g>
</svg>
