<svg width="20" height="20" viewBox="0 0 20 20" fill="none" xmlns="http://www.w3.org/2000/svg">
<g opacity="0.8">
<rect width="20" height="20" rx="3" fill="#EC5E2A"/>
<path d="M9.99925 9.94292C10.5091 9.94292 10.9223 9.52799 10.9223 9.01614C10.9223 8.50429 10.5091 8.08936 9.99925 8.08936C9.48945 8.08936 9.07617 8.50429 9.07617 9.01614C9.07617 9.52799 9.48945 9.94292 9.99925 9.94292Z" fill="white"/>
<path d="M10 5C8.93913 5 7.92172 5.42312 7.17157 6.17628C6.42143 6.92944 6 7.95094 6 9.01607C6 10.9252 8.06154 13.2175 9.79385 14.8054L10.0062 15L10.2123 14.7992C12.1292 12.9456 14 10.9778 14 9.01607C14 8.48867 13.8965 7.96643 13.6955 7.47918C13.4945 6.99193 13.1999 6.54921 12.8284 6.17628C12.457 5.80335 12.016 5.50753 11.5307 5.3057C11.0454 5.10388 10.5253 5 10 5ZM10 10.5607C9.69572 10.5607 9.39827 10.4701 9.14528 10.3004C8.89228 10.1307 8.69509 9.88942 8.57865 9.60717C8.4622 9.32493 8.43174 9.01435 8.4911 8.71472C8.55046 8.41509 8.69698 8.13986 8.91214 7.92384C9.1273 7.70782 9.40143 7.5607 9.69986 7.5011C9.99829 7.4415 10.3076 7.47209 10.5887 7.589C10.8699 7.70591 11.1101 7.90389 11.2792 8.15791C11.4482 8.41192 11.5385 8.71056 11.5385 9.01607C11.5385 9.42573 11.3764 9.81861 11.0879 10.1083C10.7993 10.398 10.408 10.5607 10 10.5607Z" fill="white"/>
</g>
</svg>
