<svg width="20" height="20" viewBox="0 0 20 20" fill="none" xmlns="http://www.w3.org/2000/svg">
<g opacity="0.8">
<rect width="20" height="20" rx="3" fill="#EC5E2A"/>
<path d="M13.2681 11.3176C13.1967 11.235 13.1083 11.1687 13.009 11.1233C12.9097 11.0779 12.8017 11.0544 12.6925 11.0544C12.5833 11.0544 12.4754 11.0779 12.3761 11.1233C12.2767 11.1687 12.1884 11.235 12.1169 11.3176C11.848 11.5833 11.5791 11.8522 11.3134 12.1244C11.2884 12.1584 11.2513 12.1815 11.2098 12.1888C11.1683 12.1961 11.1255 12.1872 11.0904 12.1638C10.9166 12.0687 10.7296 11.9932 10.5624 11.8883C9.79483 11.3908 9.11448 10.7703 8.54867 10.0517C8.25325 9.70341 8.00917 9.31465 7.82386 8.89725C7.80371 8.86264 7.79692 8.82185 7.80478 8.78258C7.81263 8.74331 7.83459 8.70827 7.8665 8.68407C8.13543 8.4217 8.3978 8.15605 8.66345 7.88712C8.75015 7.8151 8.81992 7.72487 8.86781 7.62284C8.9157 7.52081 8.94052 7.40949 8.94052 7.29678C8.94052 7.18408 8.9157 7.07275 8.86781 6.97072C8.81992 6.86869 8.75015 6.77846 8.66345 6.70644L8.03048 6.07347C7.81402 5.85701 7.59757 5.63728 7.37455 5.41754C7.30253 5.33588 7.21396 5.27048 7.11473 5.22568C7.01549 5.18089 6.90785 5.15771 6.79897 5.15771C6.69009 5.15771 6.58245 5.18089 6.48322 5.22568C6.38398 5.27048 6.29541 5.33588 6.22339 5.41754C5.95118 5.68319 5.69209 5.95868 5.41332 6.22105C5.16789 6.45252 5.02107 6.76966 5.00336 7.10656C4.98 7.65908 5.07854 8.20998 5.29198 8.72015C5.70104 9.7807 6.29019 10.7626 7.03346 11.6226C8.01176 12.7974 9.22936 13.75 10.605 14.4169C11.2163 14.737 11.8853 14.9321 12.5728 14.9908C12.8031 15.0167 13.0363 14.9874 13.253 14.9053C13.4697 14.8231 13.6638 14.6906 13.8191 14.5186C14.0486 14.2595 14.3077 14.0233 14.5537 13.7774C14.6388 13.705 14.7071 13.615 14.7539 13.5137C14.8008 13.4123 14.8251 13.302 14.8251 13.1903C14.8251 13.0786 14.8008 12.9683 14.7539 12.8669C14.7071 12.7656 14.6388 12.6756 14.5537 12.6033C14.1295 12.1747 13.701 11.7462 13.2681 11.3176Z" fill="white"/>
<path d="M14.9698 9.44496C14.1158 7.45022 12.5217 5.86432 10.5226 5.02071C10.4421 4.99066 10.353 4.9934 10.2745 5.02836C10.1959 5.06332 10.1343 5.1277 10.1028 5.20765C10.0856 5.24765 10.0766 5.29068 10.0762 5.33422C10.0758 5.37775 10.0841 5.42093 10.1006 5.46123C10.1171 5.50152 10.1414 5.53813 10.1722 5.56892C10.203 5.59971 10.2396 5.62407 10.2799 5.64056C12.1227 6.4191 13.5921 7.88144 14.3794 9.72045C14.4146 9.79844 14.4789 9.85958 14.5586 9.89083C14.6382 9.92208 14.727 9.92096 14.8058 9.88771C14.8462 9.87004 14.8826 9.84442 14.9128 9.81237C14.9431 9.78032 14.9665 9.7425 14.9818 9.70117C14.9972 9.65985 15.004 9.61586 15.0019 9.57184C14.9998 9.52782 14.9889 9.48466 14.9698 9.44496Z" fill="white"/>
<path d="M10.1094 7.42145C11.2264 7.89194 12.1175 8.77716 12.5954 9.89103C12.6208 9.94597 12.6609 9.99283 12.7112 10.0264C12.7616 10.06 12.8202 10.079 12.8807 10.0813C12.925 10.0809 12.9687 10.0708 13.0086 10.0517C13.084 10.0148 13.1424 9.9503 13.1717 9.87159C13.201 9.79288 13.199 9.70592 13.1661 9.62866C12.6244 8.36404 11.6133 7.35884 10.3456 6.82456C10.2675 6.79685 10.1818 6.7997 10.1058 6.83256C10.0297 6.86541 9.96893 6.92582 9.93559 7.00165C9.90476 7.08053 9.90564 7.16828 9.93804 7.24653C9.97044 7.32477 10.0318 7.38746 10.1094 7.42145Z" fill="white"/>
</g>
</svg>
