<svg width="20" height="20" viewBox="0 0 20 20" fill="none" xmlns="http://www.w3.org/2000/svg">
<g opacity="0.8">
<path fill-rule="evenodd" clip-rule="evenodd" d="M3.125 0C1.39912 0 0 1.39911 0 3.125V16.875C0 18.6009 1.39912 20 3.125 20H16.875C18.6009 20 20 18.6009 20 16.875V3.125C20 1.39911 18.6009 0 16.875 0H3.125ZM11.9489 5C11.9489 5.1486 11.9628 5.29494 11.9883 5.43657C12.1113 6.09129 12.4988 6.65314 13.037 7.0037C13.4128 7.24982 13.8582 7.39146 14.3384 7.39146L14.3383 7.77454V9.10957C13.4475 9.10957 12.6217 8.82401 11.9489 8.34105V11.8354C11.9489 13.579 10.5291 15 8.78695 15C8.11419 15 7.48779 14.7863 6.9751 14.4265C6.15854 13.853 5.625 12.9057 5.625 11.8354C5.625 10.0894 7.04243 8.67078 8.78462 8.67306C8.93078 8.67306 9.07228 8.68469 9.21148 8.70328V9.10956L9.20639 9.11201L9.21146 9.11189V10.4585C9.07692 10.4167 8.93309 10.3912 8.78462 10.3912C7.98891 10.3912 7.34167 11.039 7.34167 11.8354C7.34167 12.3903 7.65717 12.8709 8.11649 13.1147C8.1233 13.124 8.13021 13.1332 8.13721 13.1424C8.13192 13.1322 8.12582 13.1222 8.11884 13.1124C8.32066 13.2192 8.54799 13.2795 8.78927 13.2795C9.56638 13.2795 10.2021 12.6596 10.2299 11.8888L10.2322 5H11.9489Z" fill="#EC5E2A"/>
</g>
</svg>
