<svg width="20" height="20" viewBox="0 0 20 20" fill="none" xmlns="http://www.w3.org/2000/svg">
<g opacity="0.8">
<path d="M11.625 10L9 8.5V11.5L11.625 10Z" fill="#EC5E2A"/>
<path fill-rule="evenodd" clip-rule="evenodd" d="M0 3.125C0 1.39911 1.39911 0 3.125 0H16.875C18.6009 0 20 1.39911 20 3.125V16.875C20 18.6009 18.6009 20 16.875 20H3.125C1.39911 20 0 18.6009 0 16.875V3.125ZM13.875 6.6875C14.3125 6.8125 14.625 7.125 14.75 7.5625C15 8.375 15 10 15 10C15 10 15 11.625 14.8125 12.4375C14.6875 12.875 14.375 13.1875 13.9375 13.3125C13.125 13.5 10 13.5 10 13.5C10 13.5 6.8125 13.5 6.0625 13.3125C5.625 13.1875 5.3125 12.875 5.1875 12.4375C5 11.625 5 10 5 10C5 10 5 8.375 5.125 7.5625C5.25 7.125 5.5625 6.8125 6 6.6875C6.8125 6.5 9.9375 6.5 9.9375 6.5C9.9375 6.5 13.125 6.5 13.875 6.6875Z" fill="#EC5E2A"/>
</g>
</svg>
